<?xml version="1.0" standalone="no"?>
<!DOCTYPE svg PUBLIC "-//W3C//DTD SVG 20010904//EN"
 "http://www.w3.org/TR/2001/REC-SVG-20010904/DTD/svg10.dtd">
<svg version="1.0" xmlns="http://www.w3.org/2000/svg"
 width="4800.000000pt" height="4800.000000pt" viewBox="0 0 4800.000000 4800.000000"
 preserveAspectRatio="xMidYMid meet">
<metadata>
Created by potrace 1.14, written by Peter Selinger 2001-2017
</metadata>
<g transform="translate(0.000000,4800.000000) scale(0.100000,-0.100000)"
fill="#000000" stroke="none">
<path d="M13727 47990 c-316 -54 -579 -261 -703 -555 -16 -38 -29 -72 -30 -75
0 -3 -5 -23 -12 -45 -36 -128 -36 -353 0 -464 33 -104 52 -152 83 -208 29 -52
173 -258 378 -538 50 -69 357 -507 432 -617 65 -95 236 -359 305 -471 91 -146
100 -161 107 -177 4 -8 9 -17 12 -20 3 -3 12 -16 19 -29 8 -13 23 -40 34 -60
143 -252 348 -655 348 -684 0 -7 4 -17 9 -22 11 -12 109 -259 149 -380 89
-262 157 -564 177 -790 4 -38 8 -86 11 -105 5 -46 4 -382 -1 -440 -4 -52 -11
-112 -20 -190 -5 -43 -32 -194 -60 -330 -9 -44 -53 -195 -109 -375 -2 -5 -8
-23 -14 -38 -7 -16 -12 -31 -12 -34 0 -8 -104 -269 -131 -330 -25 -56 -225
-459 -242 -488 -7 -11 -34 -60 -62 -110 -66 -120 -68 -124 -160 -274 -44 -72
-85 -139 -90 -149 -87 -146 -364 -552 -659 -966 -122 -169 -228 -318 -236
-330 -8 -12 -39 -56 -69 -97 -30 -41 -71 -96 -91 -124 -20 -27 -53 -72 -73
-100 -30 -42 -292 -405 -327 -455 -199 -281 -571 -831 -625 -925 -15 -27 -31
-52 -34 -55 -12 -9 -299 -495 -314 -530 -4 -8 -20 -37 -36 -65 -49 -83 -276
-542 -326 -660 -26 -60 -55 -128 -65 -150 -10 -22 -43 -110 -75 -195 -31 -85
-59 -162 -62 -170 -3 -8 -7 -19 -9 -25 -1 -5 -16 -53 -34 -105 -31 -95 -93
-318 -128 -460 l-18 -75 -55 -12 c-30 -7 -65 -14 -79 -17 -408 -76 -1579 -365
-2065 -511 -403 -120 -963 -300 -1094 -350 -20 -8 -94 -35 -166 -61 -283 -101
-766 -296 -1012 -410 -40 -18 -123 -56 -185 -85 -614 -283 -1213 -649 -1653
-1008 -131 -107 -449 -415 -521 -505 -21 -27 -44 -54 -50 -60 -5 -6 -37 -47
-71 -91 -262 -345 -427 -722 -477 -1090 -15 -104 -15 -297 -1 -615 4 -98 14
-377 20 -595 9 -311 16 -524 20 -645 3 -69 7 -217 10 -330 3 -113 8 -261 10
-330 7 -222 19 -607 30 -965 3 -104 8 -255 10 -335 3 -80 7 -228 10 -330 3
-102 7 -243 10 -315 2 -71 7 -218 10 -325 5 -188 8 -280 20 -640 6 -201 14
-463 20 -670 3 -85 7 -227 10 -315 3 -88 7 -232 10 -320 2 -88 7 -236 10 -330
3 -93 8 -242 10 -330 3 -88 7 -236 10 -330 3 -93 7 -228 10 -300 2 -71 7 -222
10 -335 3 -113 8 -270 10 -350 3 -80 7 -217 10 -305 3 -88 7 -234 10 -325 3
-91 7 -239 10 -330 3 -91 7 -239 10 -330 3 -91 7 -235 10 -320 2 -85 7 -225
10 -310 2 -85 7 -236 10 -335 3 -99 7 -254 10 -345 3 -91 7 -230 10 -310 3
-80 7 -226 10 -325 3 -99 7 -243 10 -320 2 -77 7 -230 10 -340 3 -110 8 -256
10 -325 3 -69 7 -210 10 -315 3 -104 7 -251 10 -325 3 -74 7 -227 10 -340 3
-113 7 -259 10 -325 2 -66 7 -203 10 -305 3 -102 7 -248 10 -325 2 -77 7 -228
10 -335 9 -286 14 -465 20 -640 3 -85 7 -231 10 -325 11 -372 15 -526 20 -670
7 -216 14 -423 20 -635 5 -191 12 -394 20 -655 3 -82 7 -226 10 -320 7 -245
14 -476 20 -660 3 -88 8 -234 10 -325 5 -170 11 -369 20 -640 2 -85 7 -236 10
-335 3 -99 7 -243 10 -320 2 -77 7 -219 10 -315 3 -96 7 -247 10 -335 5 -157
10 -323 20 -655 3 -91 7 -228 10 -305 2 -77 7 -230 10 -340 3 -110 8 -261 10
-335 6 -195 15 -472 20 -645 20 -684 26 -815 40 -930 60 -474 239 -945 526
-1377 192 -289 386 -515 691 -803 110 -105 206 -187 368 -315 36 -28 72 -56
80 -63 151 -122 601 -419 835 -552 186 -106 432 -237 606 -323 201 -99 398
-192 405 -192 2 0 32 -13 66 -29 91 -43 321 -139 488 -206 80 -31 154 -61 165
-65 20 -9 78 -31 245 -93 152 -57 402 -145 580 -203 91 -29 192 -63 225 -75
33 -11 67 -22 76 -24 9 -2 47 -13 85 -25 171 -53 399 -120 704 -205 108 -30
502 -133 540 -141 14 -3 88 -21 165 -41 77 -19 151 -37 165 -40 14 -2 70 -15
125 -28 113 -27 444 -101 490 -109 17 -3 39 -8 50 -10 45 -11 563 -115 595
-120 56 -9 94 -16 110 -21 8 -2 31 -7 50 -10 19 -3 82 -14 140 -25 137 -24
387 -68 425 -74 56 -8 261 -43 305 -51 14 -3 45 -7 70 -10 25 -3 54 -7 65 -9
18 -3 75 -12 135 -21 14 -2 39 -6 55 -9 17 -2 66 -10 110 -16 44 -6 91 -13
105 -15 14 -2 48 -7 75 -10 28 -3 75 -10 105 -15 30 -5 75 -11 100 -14 25 -3
81 -11 125 -17 44 -6 96 -12 115 -14 19 -2 53 -7 75 -10 22 -3 58 -7 80 -10
49 -5 121 -15 143 -20 10 -1 49 -6 87 -9 39 -4 81 -9 95 -11 14 -2 52 -7 85
-10 68 -7 138 -15 175 -20 14 -2 57 -7 95 -10 39 -4 86 -9 105 -11 19 -3 62
-7 95 -9 33 -3 76 -7 95 -10 19 -2 67 -7 105 -10 39 -4 81 -8 95 -10 14 -2 59
-7 100 -10 41 -3 93 -8 115 -10 22 -2 72 -6 110 -10 39 -3 93 -8 120 -10 28
-3 82 -7 120 -10 106 -8 229 -18 375 -30 42 -4 189 -13 305 -20 28 -2 88 -6
135 -9 47 -3 130 -8 185 -11 55 -3 129 -8 165 -10 230 -15 557 -29 885 -40
110 -4 243 -9 295 -10 873 -31 2466 -21 3315 20 44 2 148 6 230 10 83 3 182 8
220 10 39 3 117 7 175 10 58 4 132 8 165 10 33 2 112 6 175 10 63 4 135 8 160
10 25 2 88 6 140 10 52 4 113 8 135 10 22 2 85 6 140 10 55 3 114 8 130 10 17
3 68 7 115 10 47 3 101 7 120 9 19 2 75 7 124 11 49 4 98 8 110 10 11 2 59 6
106 10 47 4 99 8 115 10 17 2 62 7 100 10 39 3 81 8 95 10 14 2 57 6 95 10 39
3 88 8 110 11 22 2 63 7 90 9 28 3 66 8 85 10 19 2 60 7 90 10 30 3 71 8 90
10 60 8 113 14 175 20 33 3 71 8 85 10 25 4 117 16 155 20 26 2 133 16 165 20
14 2 48 7 75 10 28 4 77 10 110 15 33 5 80 12 105 15 73 9 193 26 225 31 17 3
44 7 60 9 47 5 498 75 515 80 8 2 38 6 65 10 28 3 88 13 135 21 47 8 101 17
120 20 19 2 58 9 85 14 28 5 64 12 80 15 17 3 107 19 200 36 94 17 184 33 200
36 24 4 206 39 348 67 15 4 39 8 55 11 22 5 208 43 297 61 11 2 29 6 40 8 11
3 63 14 115 25 52 11 110 25 128 30 18 5 35 10 37 10 3 0 18 2 33 5 15 4 36 8
47 10 35 7 245 56 395 93 80 19 152 36 160 38 35 7 526 137 625 165 17 4 64
17 105 28 95 26 511 149 542 161 13 5 25 9 28 9 9 1 33 9 370 121 184 61 340
113 345 114 6 1 15 5 20 9 6 3 26 11 45 16 57 17 472 174 575 217 17 7 55 22
85 34 30 12 64 26 75 31 11 5 85 37 165 71 350 149 844 389 1100 536 67 38
215 124 230 133 8 5 65 40 125 76 96 58 388 250 419 275 6 5 70 52 141 105
220 163 436 347 615 524 125 124 310 326 349 382 8 13 24 32 34 43 49 53 242
333 300 435 59 105 75 133 118 220 53 106 94 195 113 249 93 254 143 431 171
611 3 19 8 42 10 50 4 14 10 66 21 175 4 47 13 248 17 387 l2 96 55 7 c30 3
78 10 105 15 28 5 73 12 100 15 96 11 598 109 616 121 3 2 19 5 35 8 156 28
820 237 999 316 11 4 56 23 100 40 168 67 388 168 605 277 124 62 232 118 240
123 8 5 60 34 115 65 55 30 107 60 115 65 8 5 32 20 54 32 21 13 46 28 55 33
9 6 54 34 101 63 47 29 94 58 105 65 11 6 22 14 25 17 3 3 56 39 119 80 63 41
119 80 125 85 6 6 34 26 61 45 58 39 238 172 245 180 3 3 32 25 65 49 33 25
62 47 65 51 3 3 52 44 110 90 58 47 114 94 126 105 12 11 44 39 72 63 240 202
732 691 898 891 16 19 38 44 49 56 26 28 61 69 110 130 22 28 47 57 55 65 26
25 200 247 311 395 57 77 107 144 112 150 55 72 254 367 357 530 112 177 126
199 156 250 16 28 34 59 41 70 7 11 15 27 19 35 4 8 22 39 41 68 18 29 33 54
33 55 0 2 28 53 61 113 132 235 340 658 458 929 34 77 67 154 75 170 7 17 18
42 25 58 6 15 15 37 21 50 68 155 237 617 315 856 69 216 106 332 111 351 2 8
10 40 19 70 9 30 18 62 20 70 2 8 9 31 15 50 13 43 137 525 144 560 2 14 14
68 26 120 27 118 96 461 104 516 4 22 8 51 11 64 5 25 11 60 19 113 3 15 9 53
15 85 10 55 19 116 27 177 2 17 9 64 15 105 6 41 13 86 14 100 8 73 16 139 20
170 10 68 22 183 40 380 7 75 10 115 30 395 14 194 20 429 20 810 0 432 -7
643 -30 980 -7 105 -32 391 -40 450 -2 17 -6 57 -10 90 -9 87 -14 131 -25 215
-6 42 -12 91 -15 110 -2 19 -6 51 -9 70 -3 19 -8 55 -11 80 -3 25 -10 68 -15
95 -6 28 -12 66 -15 85 -7 51 -23 152 -28 175 -3 11 -10 54 -17 95 -6 41 -16
91 -20 110 -9 36 -16 71 -26 130 -5 31 -85 391 -98 445 -3 11 -24 94 -46 185
-83 332 -225 805 -335 1110 -75 208 -187 501 -219 574 -8 17 -31 72 -51 121
-117 280 -373 813 -497 1035 -14 25 -40 72 -58 105 -35 63 -66 117 -88 150 -6
11 -15 27 -19 35 -39 86 -361 588 -515 805 -51 71 -341 460 -347 465 -3 3 -44
52 -90 110 -83 103 -250 299 -280 331 -9 9 -45 49 -81 90 -73 83 -513 526
-606 609 -529 478 -995 823 -1544 1142 -74 43 -142 83 -150 88 -47 28 -431
224 -515 262 -33 15 -96 44 -140 64 -121 55 -251 108 -450 184 -259 98 -466
163 -865 270 -37 10 -183 44 -238 55 l-32 7 5 151 c7 218 13 423 20 657 3 113
7 257 10 320 3 63 8 216 11 340 3 124 7 261 9 305 4 141 -28 384 -71 545 -57
210 -182 480 -309 670 -80 118 -206 284 -271 355 -126 138 -306 314 -409 400
-33 28 -69 58 -80 68 -69 62 -300 231 -481 352 -272 180 -371 240 -644 389
-83 46 -497 254 -575 289 -996 453 -2031 805 -3310 1126 -318 80 -794 191
-915 215 -14 2 -90 19 -170 36 -418 90 -1180 233 -1525 287 -16 2 -79 13 -140
23 -60 10 -126 21 -145 24 -19 3 -109 16 -200 30 -91 14 -214 32 -275 41 -60
9 -117 17 -125 20 -8 2 -42 6 -75 10 -33 3 -69 8 -80 10 -11 3 -41 7 -67 10
-26 2 -58 7 -70 9 -13 3 -47 8 -77 11 -29 3 -85 10 -125 15 -39 6 -89 13 -111
15 -22 3 -71 10 -110 15 -38 5 -95 12 -125 16 -106 12 -126 14 -215 24 -49 6
-104 13 -122 15 -29 4 -156 18 -268 30 -27 3 -66 8 -85 10 -19 2 -57 7 -85 10
-27 2 -70 7 -95 9 -25 3 -97 10 -160 16 -63 6 -126 12 -140 15 -14 2 -65 6
-115 10 -49 4 -92 8 -95 10 -3 1 -54 6 -115 10 -60 4 -112 8 -115 10 -3 2 -52
6 -110 9 -58 4 -116 9 -130 11 -14 2 -65 7 -115 10 -49 3 -108 8 -130 10 -22
2 -76 6 -120 10 -44 3 -105 7 -135 10 -30 2 -95 7 -145 10 -49 3 -117 8 -150
10 -33 2 -100 7 -150 10 -49 3 -119 8 -155 10 -36 2 -114 7 -175 10 -60 3
-135 8 -165 10 -30 2 -116 7 -190 10 -74 3 -164 7 -200 10 -36 3 -135 7 -220
10 -85 3 -193 8 -240 10 -75 4 -245 10 -590 20 -152 5 -880 17 -1195 20 -165
1 -269 6 -268 12 2 10 42 66 344 484 166 231 344 483 419 594 202 302 344 523
403 628 14 23 47 80 74 127 141 242 222 403 373 736 39 87 131 327 174 457 42
125 122 416 132 476 2 14 9 46 14 71 11 52 37 199 44 250 21 155 24 178 32
305 13 193 6 615 -11 705 -3 16 -8 52 -20 155 -17 146 -73 408 -126 595 -37
131 -120 384 -139 425 -5 11 -19 44 -30 73 -63 164 -128 309 -220 492 -90 181
-191 368 -221 412 -11 14 -19 29 -19 32 0 17 -195 328 -383 611 -185 277 -606
873 -700 990 -153 190 -369 312 -607 341 -436 53 -843 -206 -984 -626 -36
-107 -49 -209 -43 -330 11 -221 65 -345 274 -634 279 -388 334 -467 522 -746
544 -810 804 -1398 868 -1965 15 -136 8 -479 -12 -584 -2 -10 -6 -36 -9 -57
-3 -22 -8 -50 -11 -64 -3 -14 -7 -34 -9 -45 -11 -52 -68 -258 -89 -320 -102
-295 -261 -623 -466 -965 -184 -305 -392 -611 -785 -1155 -115 -159 -221 -306
-235 -326 -14 -20 -93 -131 -175 -245 -204 -285 -201 -282 -363 -521 -79 -117
-143 -215 -143 -218 0 -3 -5 -11 -10 -18 -14 -15 -74 -110 -102 -159 -20 -36
-25 -38 -72 -39 -28 0 -73 -2 -101 -4 -27 -1 -120 -5 -205 -9 -85 -4 -186 -9
-225 -11 -125 -7 -258 -15 -355 -20 -95 -5 -164 -9 -335 -20 -139 -9 -213 -14
-295 -20 -41 -3 -102 -8 -135 -10 -103 -7 -218 -16 -265 -21 -24 -2 -81 -6
-125 -9 -101 -7 -188 -14 -240 -20 -22 -3 -71 -7 -110 -10 -97 -7 -167 -14
-335 -30 -80 -8 -174 -17 -210 -20 -36 -3 -81 -8 -100 -10 -19 -2 -82 -9 -140
-15 -193 -19 -205 -21 -240 -25 -47 -7 -93 -12 -170 -19 -36 -4 -81 -9 -100
-11 -19 -3 -53 -7 -75 -9 -22 -3 -76 -10 -120 -15 -44 -6 -100 -12 -125 -15
-72 -9 -592 -76 -620 -81 -14 -2 -47 -6 -75 -10 -27 -3 -108 -15 -179 -26 -71
-11 -130 -18 -132 -17 -4 5 46 119 121 273 37 77 73 154 81 170 8 17 19 37 24
45 5 8 46 82 91 163 73 136 162 287 258 441 47 76 442 668 485 726 18 25 55
77 82 116 62 91 144 205 419 584 241 333 392 542 415 576 8 12 85 120 169 241
147 207 423 617 522 775 95 151 176 284 195 318 10 19 22 37 25 40 3 3 22 34
41 70 20 36 50 89 67 118 17 29 31 55 31 57 0 2 14 28 31 57 34 56 234 453
267 528 11 25 34 77 52 115 132 292 284 734 365 1065 16 64 58 272 70 345 8
50 17 101 19 115 8 46 15 95 21 160 4 36 9 76 11 90 26 167 25 742 -2 982 -7
66 -52 386 -58 413 -3 11 -14 67 -26 125 -12 58 -23 112 -25 121 -17 81 -88
328 -137 479 -227 697 -590 1401 -1168 2265 -139 207 -198 295 -228 334 -15
20 -31 44 -37 53 -10 16 -191 272 -278 393 -246 341 -308 426 -325 446 -12 13
-31 36 -44 51 -101 116 -291 224 -463 265 -71 16 -280 24 -348 13z m23103
-25609 c19 -14 51 -38 70 -54 19 -15 40 -31 45 -35 64 -44 189 -157 331 -297
303 -301 567 -655 815 -1090 95 -167 359 -727 359 -761 0 -3 6 -20 14 -37 20
-44 86 -230 129 -362 67 -205 85 -267 134 -460 14 -55 27 -107 29 -115 14 -51
87 -410 99 -485 7 -49 17 -108 20 -130 28 -170 52 -368 70 -590 28 -339 28
-999 0 -1280 -2 -22 -6 -66 -9 -97 -13 -136 -18 -179 -31 -283 -23 -182 -59
-403 -84 -515 -5 -25 -12 -63 -16 -85 -3 -22 -10 -56 -15 -75 -5 -19 -11 -46
-13 -60 -7 -36 -106 -419 -116 -450 -5 -14 -30 -92 -56 -175 -171 -542 -429
-1093 -722 -1538 -85 -128 -293 -410 -350 -473 -15 -17 -55 -62 -88 -100 -72
-82 -248 -259 -331 -331 -32 -29 -68 -61 -79 -71 -75 -69 -278 -216 -405 -293
-79 -49 -168 -99 -175 -99 -2 0 -2 51 0 113 4 122 15 463 30 963 3 93 7 237
10 319 10 333 23 752 30 980 3 99 7 239 10 310 2 72 7 225 10 340 6 211 10
349 20 635 5 157 11 367 20 675 7 230 14 458 20 645 9 259 14 425 20 650 4
118 8 265 10 325 2 61 7 202 10 315 3 113 8 266 10 340 3 74 7 216 10 315 6
221 14 480 20 640 2 66 7 212 10 325 3 113 8 270 10 350 9 280 16 506 20 625
2 66 7 212 10 325 3 113 8 261 10 330 2 69 7 222 11 340 3 118 7 253 9 300 2
47 4 116 4 153 1 74 -1 73 61 28z"/>
</g>
</svg>
